<svg xmlns="http://www.w3.org/2000/svg" viewBox="0 0 1200 630" width="1200" height="630">
  <defs>
    <linearGradient id="bg" x1="0" y1="0" x2="1" y2="1">
      <stop offset="0%" stop-color="#12385c"/>
      <stop offset="100%" stop-color="#071a2c"/>
    </linearGradient>
  </defs>
  <rect width="1200" height="630" fill="url(#bg)"/>
  <g fill="none" stroke="#4a90c2" stroke-opacity="0.28" stroke-width="1.4">
    <circle cx="1010" cy="150" r="110"/>
    <circle cx="1010" cy="150" r="180"/>
    <circle cx="1010" cy="150" r="250"/>
    <path d="M-40 520 C 240 440, 420 570, 700 440 S 1040 310, 1240 380"/>
    <path d="M-40 575 C 250 500, 430 620, 720 495 S 1050 375, 1240 440"/>
  </g>
  <g transform="translate(80 72)">
    <rect width="56" height="56" rx="13" fill="#ffffff"/>
    <path d="M16.8 18.9h22.4" stroke="#071a2c" stroke-width="3.4" stroke-linecap="round"/>
    <path d="M16.8 28h15.4" stroke="#12385c" stroke-width="3.4" stroke-linecap="round"/>
    <path d="M16.8 37.1h9.1" stroke="#2f6f9f" stroke-width="3.4" stroke-linecap="round"/>
    <circle cx="38.5" cy="37.1" r="3.6" fill="#4a90c2"/>
    <text x="76" y="26" font-family="Segoe UI, Helvetica Neue, Arial, sans-serif" font-size="24" fill="#ffffff">
      <tspan font-weight="400">Forma Pro </tspan><tspan font-weight="700">Solutions</tspan>
    </text>
    <text x="76" y="46" font-family="Segoe UI, Helvetica Neue, Arial, sans-serif" font-size="12" letter-spacing="2.4" font-weight="600" fill="#b3c4d4">ORGANISME DE FORMATION</text>
  </g>
  <g font-family="Segoe UI, Helvetica Neue, Arial, sans-serif">
    <text x="80" y="290" font-size="26" letter-spacing="3" font-weight="600" fill="#4a90c2">RS6931 — RÉPERTOIRE SPÉCIFIQUE</text>
    <text x="80" y="368" font-size="52" font-weight="700" fill="#ffffff">Intégrer le management d’équipe</text>
    <text x="80" y="432" font-size="52" font-weight="700" fill="#ffffff">dans son activité professionnelle</text>
    <text x="80" y="502" font-size="25" fill="#b3c4d4">Formation certifiante — 21 heures à distance, en visioconférence</text>
  </g>
  <rect x="80" y="540" width="120" height="4" rx="2" fill="#4a90c2"/>
</svg>
